<svg xmlns="http://www.w3.org/2000/svg" version="1.1" xmlns:xlink="http://www.w3.org/1999/xlink" xmlns:svgjs="http://svgjs.dev/svgjs" width="1920" height="1280" preserveAspectRatio="none" viewBox="0 0 1920 1280"><g mask="url(&quot;#SvgjsMask1567&quot;)" fill="none"><rect width="1920" height="1280" x="0" y="0" fill="rgba(7, 1, 18, 1)"></rect><g mask="url(&quot;#SvgjsMask1568&quot;)"><path d="M1825 675L1775 625M1525 625L1475 675L1425 675L1375 675M1725 675L1675 625M1975 625L1925 625L1875 625L1825 675L1775 675L1725 675L1675 675L1625 625L1575 625L1525 625L1475 625L1425 625L1375 625L1325 675L1275 725" stroke="rgba(9, 218, 231, 0.63)" stroke-width="8.33"></path><path d="M1262.5 725 a12.5 12.5 0 1 0 25 0 a12.5 12.5 0 1 0 -25 0zM1762.5 625 a12.5 12.5 0 1 0 25 0 a12.5 12.5 0 1 0 -25 0zM1362.5 675 a12.5 12.5 0 1 0 25 0 a12.5 12.5 0 1 0 -25 0zM1662.5 625 a12.5 12.5 0 1 0 25 0 a12.5 12.5 0 1 0 -25 0z" fill="rgba(9, 218, 231, 0.63)"></path><path d="M1575 575L1525 525M1425 525L1375 575M1975 575L1925 575L1875 575L1825 575L1775 575L1725 575L1675 575L1625 575L1575 575L1525 575L1475 575L1425 525L1375 525L1325 525L1275 525" stroke="rgba(9, 218, 231, 0.63)" stroke-width="8.33"></path><path d="M1262.5 525 a12.5 12.5 0 1 0 25 0 a12.5 12.5 0 1 0 -25 0zM1512.5 525 a12.5 12.5 0 1 0 25 0 a12.5 12.5 0 1 0 -25 0zM1362.5 575 a12.5 12.5 0 1 0 25 0 a12.5 12.5 0 1 0 -25 0z" fill="rgba(9, 218, 231, 0.63)"></path><path d="M1925 725L1875 675M1725 725L1675 775L1625 775M1975 725L1925 725L1875 725L1825 725L1775 725L1725 725L1675 725" stroke="rgba(9, 218, 231, 0.63)" stroke-width="8.33"></path><path d="M1662.5 725 a12.5 12.5 0 1 0 25 0 a12.5 12.5 0 1 0 -25 0zM1862.5 675 a12.5 12.5 0 1 0 25 0 a12.5 12.5 0 1 0 -25 0zM1612.5 775 a12.5 12.5 0 1 0 25 0 a12.5 12.5 0 1 0 -25 0z" fill="rgba(9, 218, 231, 0.63)"></path><path d="M1975 525L1925 525L1875 525L1825 525L1775 525L1725 525L1675 525L1625 525" stroke="rgba(9, 218, 231, 0.63)" stroke-width="8.33"></path><path d="M1612.5 525 a12.5 12.5 0 1 0 25 0 a12.5 12.5 0 1 0 -25 0z" fill="rgba(9, 218, 231, 0.63)"></path><path d="M1975 775L1925 775L1875 775L1825 775L1775 775" stroke="rgba(9, 218, 231, 0.63)" stroke-width="8.33"></path><path d="M1762.5 775 a12.5 12.5 0 1 0 25 0 a12.5 12.5 0 1 0 -25 0z" fill="rgba(9, 218, 231, 0.63)"></path><path d="M1975 475L1925 475L1875 475L1825 475L1775 475L1725 475L1675 475L1625 475" stroke="rgba(95, 39, 205, 0.7)" stroke-width="8.33"></path><path d="M1612.5 475 a12.5 12.5 0 1 0 25 0 a12.5 12.5 0 1 0 -25 0z" fill="rgba(95, 39, 205, 0.7)"></path><path d="M1975 825L1925 825L1875 825L1825 825L1775 825" stroke="rgba(95, 39, 205, 0.7)" stroke-width="8.33"></path><path d="M1762.5 825 a12.5 12.5 0 1 0 25 0 a12.5 12.5 0 1 0 -25 0z" fill="rgba(95, 39, 205, 0.7)"></path><path d="M1575 425L1525 425M1325 475L1275 475L1225 475M1125 375L1075 425L1025 425L975 425M1225 425L1175 375M1175 425L1125 425L1075 475L1025 525L975 525M1975 425L1925 425L1875 425L1825 425L1775 425L1725 425L1675 425L1625 425L1575 425L1525 475L1475 475L1425 475L1375 475L1325 475L1275 425L1225 425L1175 425L1125 375L1075 375L1025 375" stroke="rgba(9, 218, 231, 0.63)" stroke-width="8.33"></path><path d="M1012.5 375 a12.5 12.5 0 1 0 25 0 a12.5 12.5 0 1 0 -25 0zM1512.5 425 a12.5 12.5 0 1 0 25 0 a12.5 12.5 0 1 0 -25 0zM1212.5 475 a12.5 12.5 0 1 0 25 0 a12.5 12.5 0 1 0 -25 0zM962.5 425 a12.5 12.5 0 1 0 25 0 a12.5 12.5 0 1 0 -25 0zM1162.5 375 a12.5 12.5 0 1 0 25 0 a12.5 12.5 0 1 0 -25 0zM962.5 525 a12.5 12.5 0 1 0 25 0 a12.5 12.5 0 1 0 -25 0z" fill="rgba(9, 218, 231, 0.63)"></path><path d="M1175 925L1125 975L1075 975M1425 925L1375 975L1325 975L1275 975M1375 925L1325 875L1275 875M1675 925L1625 975L1575 975L1525 975L1475 975L1425 1025M1975 875L1925 875L1875 875L1825 875L1775 925L1725 925L1675 925L1625 925L1575 925L1525 925L1475 925L1425 925L1375 925L1325 925L1275 925L1225 925L1175 925L1125 925" stroke="rgba(95, 39, 205, 0.7)" stroke-width="8.33"></path><path d="M1112.5 925 a12.5 12.5 0 1 0 25 0 a12.5 12.5 0 1 0 -25 0zM1062.5 975 a12.5 12.5 0 1 0 25 0 a12.5 12.5 0 1 0 -25 0zM1262.5 975 a12.5 12.5 0 1 0 25 0 a12.5 12.5 0 1 0 -25 0zM1262.5 875 a12.5 12.5 0 1 0 25 0 a12.5 12.5 0 1 0 -25 0zM1412.5 1025 a12.5 12.5 0 1 0 25 0 a12.5 12.5 0 1 0 -25 0z" fill="rgba(95, 39, 205, 0.7)"></path><path d="M1425 425L1375 375M1525 375L1475 375L1425 375M1975 375L1925 375L1875 375L1825 375L1775 375L1725 375L1675 375L1625 375L1575 375L1525 375L1475 425L1425 425L1375 425L1325 425" stroke="rgba(9, 218, 231, 0.63)" stroke-width="8.33"></path><path d="M1312.5 425 a12.5 12.5 0 1 0 25 0 a12.5 12.5 0 1 0 -25 0zM1362.5 375 a12.5 12.5 0 1 0 25 0 a12.5 12.5 0 1 0 -25 0zM1412.5 375 a12.5 12.5 0 1 0 25 0 a12.5 12.5 0 1 0 -25 0z" fill="rgba(9, 218, 231, 0.63)"></path><path d="M1875 925L1825 975L1775 1025M1925 925L1875 975L1825 1025M1975 925L1925 925L1875 925L1825 925L1775 975" stroke="rgba(9, 218, 231, 0.63)" stroke-width="8.33"></path><path d="M1762.5 975 a12.5 12.5 0 1 0 25 0 a12.5 12.5 0 1 0 -25 0zM1762.5 1025 a12.5 12.5 0 1 0 25 0 a12.5 12.5 0 1 0 -25 0zM1812.5 1025 a12.5 12.5 0 1 0 25 0 a12.5 12.5 0 1 0 -25 0z" fill="rgba(9, 218, 231, 0.63)"></path><path d="M1225 325L1175 275L1125 275L1075 275L1025 225M1475 325L1425 275L1375 275L1325 275M1725 325L1675 275L1625 275L1575 275L1525 275L1475 275M1325 325L1275 375L1225 375M1775 325L1725 275L1675 225L1625 225L1575 175M1975 325L1925 325L1875 325L1825 325L1775 325L1725 325L1675 325L1625 325L1575 325L1525 325L1475 325L1425 325L1375 325L1325 325L1275 325L1225 325L1175 325L1125 325L1075 325L1025 275" stroke="rgba(95, 39, 205, 0.7)" stroke-width="8.33"></path><path d="M1012.5 275 a12.5 12.5 0 1 0 25 0 a12.5 12.5 0 1 0 -25 0zM1012.5 225 a12.5 12.5 0 1 0 25 0 a12.5 12.5 0 1 0 -25 0zM1312.5 275 a12.5 12.5 0 1 0 25 0 a12.5 12.5 0 1 0 -25 0zM1462.5 275 a12.5 12.5 0 1 0 25 0 a12.5 12.5 0 1 0 -25 0zM1212.5 375 a12.5 12.5 0 1 0 25 0 a12.5 12.5 0 1 0 -25 0zM1562.5 175 a12.5 12.5 0 1 0 25 0 a12.5 12.5 0 1 0 -25 0z" fill="rgba(95, 39, 205, 0.7)"></path></g></g><defs><mask id="SvgjsMask1567"><rect width="1920" height="1280" fill="#ffffff"></rect></mask><mask id="SvgjsMask1568"><rect width="1920" height="1280" fill="white"></rect><path d="M1268.75 725 a6.25 6.25 0 1 0 12.5 0 a6.25 6.25 0 1 0 -12.5 0zM1768.75 625 a6.25 6.25 0 1 0 12.5 0 a6.25 6.25 0 1 0 -12.5 0zM1368.75 675 a6.25 6.25 0 1 0 12.5 0 a6.25 6.25 0 1 0 -12.5 0zM1668.75 625 a6.25 6.25 0 1 0 12.5 0 a6.25 6.25 0 1 0 -12.5 0z" fill="black"></path><path d="M1268.75 525 a6.25 6.25 0 1 0 12.5 0 a6.25 6.25 0 1 0 -12.5 0zM1518.75 525 a6.25 6.25 0 1 0 12.5 0 a6.25 6.25 0 1 0 -12.5 0zM1368.75 575 a6.25 6.25 0 1 0 12.5 0 a6.25 6.25 0 1 0 -12.5 0z" fill="black"></path><path d="M1668.75 725 a6.25 6.25 0 1 0 12.5 0 a6.25 6.25 0 1 0 -12.5 0zM1868.75 675 a6.25 6.25 0 1 0 12.5 0 a6.25 6.25 0 1 0 -12.5 0zM1618.75 775 a6.25 6.25 0 1 0 12.5 0 a6.25 6.25 0 1 0 -12.5 0z" fill="black"></path><path d="M1618.75 525 a6.25 6.25 0 1 0 12.5 0 a6.25 6.25 0 1 0 -12.5 0z" fill="black"></path><path d="M1768.75 775 a6.25 6.25 0 1 0 12.5 0 a6.25 6.25 0 1 0 -12.5 0z" fill="black"></path><path d="M1618.75 475 a6.25 6.25 0 1 0 12.5 0 a6.25 6.25 0 1 0 -12.5 0z" fill="black"></path><path d="M1768.75 825 a6.25 6.25 0 1 0 12.5 0 a6.25 6.25 0 1 0 -12.5 0z" fill="black"></path><path d="M1018.75 375 a6.25 6.25 0 1 0 12.5 0 a6.25 6.25 0 1 0 -12.5 0zM1518.75 425 a6.25 6.25 0 1 0 12.5 0 a6.25 6.25 0 1 0 -12.5 0zM1218.75 475 a6.25 6.25 0 1 0 12.5 0 a6.25 6.25 0 1 0 -12.5 0zM968.75 425 a6.25 6.25 0 1 0 12.5 0 a6.25 6.25 0 1 0 -12.5 0zM1168.75 375 a6.25 6.25 0 1 0 12.5 0 a6.25 6.25 0 1 0 -12.5 0zM968.75 525 a6.25 6.25 0 1 0 12.5 0 a6.25 6.25 0 1 0 -12.5 0z" fill="black"></path><path d="M1118.75 925 a6.25 6.25 0 1 0 12.5 0 a6.25 6.25 0 1 0 -12.5 0zM1068.75 975 a6.25 6.25 0 1 0 12.5 0 a6.25 6.25 0 1 0 -12.5 0zM1268.75 975 a6.25 6.25 0 1 0 12.5 0 a6.25 6.25 0 1 0 -12.5 0zM1268.75 875 a6.25 6.25 0 1 0 12.5 0 a6.25 6.25 0 1 0 -12.5 0zM1418.75 1025 a6.25 6.25 0 1 0 12.5 0 a6.25 6.25 0 1 0 -12.5 0z" fill="black"></path><path d="M1318.75 425 a6.25 6.25 0 1 0 12.5 0 a6.25 6.25 0 1 0 -12.5 0zM1368.75 375 a6.25 6.25 0 1 0 12.5 0 a6.25 6.25 0 1 0 -12.5 0zM1418.75 375 a6.25 6.25 0 1 0 12.5 0 a6.25 6.25 0 1 0 -12.5 0z" fill="black"></path><path d="M1768.75 975 a6.25 6.25 0 1 0 12.5 0 a6.25 6.25 0 1 0 -12.5 0zM1768.75 1025 a6.25 6.25 0 1 0 12.5 0 a6.25 6.25 0 1 0 -12.5 0zM1818.75 1025 a6.25 6.25 0 1 0 12.5 0 a6.25 6.25 0 1 0 -12.5 0z" fill="black"></path><path d="M1018.75 275 a6.25 6.25 0 1 0 12.5 0 a6.25 6.25 0 1 0 -12.5 0zM1018.75 225 a6.25 6.25 0 1 0 12.5 0 a6.25 6.25 0 1 0 -12.5 0zM1318.75 275 a6.25 6.25 0 1 0 12.5 0 a6.25 6.25 0 1 0 -12.5 0zM1468.75 275 a6.25 6.25 0 1 0 12.5 0 a6.25 6.25 0 1 0 -12.5 0zM1218.75 375 a6.25 6.25 0 1 0 12.5 0 a6.25 6.25 0 1 0 -12.5 0zM1568.75 175 a6.25 6.25 0 1 0 12.5 0 a6.25 6.25 0 1 0 -12.5 0z" fill="black"></path></mask></defs></svg>