<svg xmlns="http://www.w3.org/2000/svg" version="1.1" xmlns:xlink="http://www.w3.org/1999/xlink" xmlns:svgjs="http://svgjs.dev/svgjs" width="1920" height="1280" preserveAspectRatio="none" viewBox="0 0 1920 1280"><g mask="url(&quot;#SvgjsMask1557&quot;)" fill="none"><rect width="1920" height="1280" x="0" y="0" fill="rgba(14, 4, 35, 1)"></rect><g mask="url(&quot;#SvgjsMask1558&quot;)"><path d="M975 1125L1025 1075L1025 1025M1025 875L975 825L975 775L975 725M975 1325L975 1275L975 1225L975 1175L975 1125L975 1075L975 1025L975 975L1025 925L1025 875L1025 825L1025 775" stroke="rgba(9, 218, 231, 0.63)" stroke-width="8.33"></path><path d="M1012.5 775 a12.5 12.5 0 1 0 25 0 a12.5 12.5 0 1 0 -25 0zM1012.5 1025 a12.5 12.5 0 1 0 25 0 a12.5 12.5 0 1 0 -25 0zM962.5 725 a12.5 12.5 0 1 0 25 0 a12.5 12.5 0 1 0 -25 0z" fill="rgba(9, 218, 231, 0.63)"></path><path d="M925 1125L875 1075M925 1175L875 1125L825 1075L825 1025M925 1225L875 1175L825 1125M925 1325L925 1275L925 1225L925 1175L925 1125L925 1075L925 1025L925 975L925 925L925 875L875 825L875 775L875 725L875 675" stroke="rgba(9, 218, 231, 0.63)" stroke-width="8.33"></path><path d="M862.5 675 a12.5 12.5 0 1 0 25 0 a12.5 12.5 0 1 0 -25 0zM862.5 1075 a12.5 12.5 0 1 0 25 0 a12.5 12.5 0 1 0 -25 0zM812.5 1025 a12.5 12.5 0 1 0 25 0 a12.5 12.5 0 1 0 -25 0zM812.5 1125 a12.5 12.5 0 1 0 25 0 a12.5 12.5 0 1 0 -25 0z" fill="rgba(9, 218, 231, 0.63)"></path><path d="M1025 1225L1075 1175M1125 875L1175 825L1175 775M1025 1175L1025 1125M1025 1325L1025 1275L1025 1225L1025 1175L1075 1125L1075 1075L1125 1025L1125 975L1125 925L1125 875L1125 825L1125 775L1125 725" stroke="rgba(95, 39, 205, 0.7)" stroke-width="8.33"></path><path d="M1112.5 725 a12.5 12.5 0 1 0 25 0 a12.5 12.5 0 1 0 -25 0zM1062.5 1175 a12.5 12.5 0 1 0 25 0 a12.5 12.5 0 1 0 -25 0zM1162.5 775 a12.5 12.5 0 1 0 25 0 a12.5 12.5 0 1 0 -25 0zM1012.5 1125 a12.5 12.5 0 1 0 25 0 a12.5 12.5 0 1 0 -25 0z" fill="rgba(95, 39, 205, 0.7)"></path><path d="M1075 1325L1075 1275L1125 1225L1125 1175L1125 1125L1125 1075L1175 1025" stroke="rgba(9, 218, 231, 0.63)" stroke-width="8.33"></path><path d="M1162.5 1025 a12.5 12.5 0 1 0 25 0 a12.5 12.5 0 1 0 -25 0z" fill="rgba(9, 218, 231, 0.63)"></path><path d="M825 1275L875 1225M825 1225L825 1175M825 1325L825 1275L825 1225L775 1175L775 1125L775 1075L775 1025" stroke="rgba(9, 218, 231, 0.63)" stroke-width="8.33"></path><path d="M762.5 1025 a12.5 12.5 0 1 0 25 0 a12.5 12.5 0 1 0 -25 0zM862.5 1225 a12.5 12.5 0 1 0 25 0 a12.5 12.5 0 1 0 -25 0zM812.5 1175 a12.5 12.5 0 1 0 25 0 a12.5 12.5 0 1 0 -25 0z" fill="rgba(9, 218, 231, 0.63)"></path><path d="M1225 925L1275 875M1225 825L1275 775L1275 725L1275 675M1225 975L1175 925M1125 1325L1125 1275L1175 1225L1175 1175L1175 1125L1175 1075L1225 1025L1225 975L1225 925L1225 875L1225 825L1225 775" stroke="rgba(9, 218, 231, 0.63)" stroke-width="8.33"></path><path d="M1212.5 775 a12.5 12.5 0 1 0 25 0 a12.5 12.5 0 1 0 -25 0zM1262.5 875 a12.5 12.5 0 1 0 25 0 a12.5 12.5 0 1 0 -25 0zM1262.5 675 a12.5 12.5 0 1 0 25 0 a12.5 12.5 0 1 0 -25 0zM1162.5 925 a12.5 12.5 0 1 0 25 0 a12.5 12.5 0 1 0 -25 0z" fill="rgba(9, 218, 231, 0.63)"></path><path d="M775 1325L775 1275L775 1225L725 1175L725 1125L725 1075L725 1025L725 975" stroke="rgba(9, 218, 231, 0.63)" stroke-width="8.33"></path><path d="M712.5 975 a12.5 12.5 0 1 0 25 0 a12.5 12.5 0 1 0 -25 0z" fill="rgba(9, 218, 231, 0.63)"></path><path d="M1275 1125L1225 1075M1175 1325L1175 1275L1225 1225L1225 1175L1275 1125L1275 1075L1275 1025L1275 975L1325 925L1325 875L1325 825L1325 775L1325 725" stroke="rgba(95, 39, 205, 0.7)" stroke-width="8.33"></path><path d="M1312.5 725 a12.5 12.5 0 1 0 25 0 a12.5 12.5 0 1 0 -25 0zM1212.5 1075 a12.5 12.5 0 1 0 25 0 a12.5 12.5 0 1 0 -25 0z" fill="rgba(95, 39, 205, 0.7)"></path><path d="M675 825L625 775L625 725L625 675M675 775L725 725M675 875L625 825M725 1325L725 1275L725 1225L675 1175L675 1125L675 1075L675 1025L675 975L675 925L675 875L675 825L675 775L675 725L675 675" stroke="rgba(95, 39, 205, 0.7)" stroke-width="8.33"></path><path d="M662.5 675 a12.5 12.5 0 1 0 25 0 a12.5 12.5 0 1 0 -25 0zM612.5 675 a12.5 12.5 0 1 0 25 0 a12.5 12.5 0 1 0 -25 0zM712.5 725 a12.5 12.5 0 1 0 25 0 a12.5 12.5 0 1 0 -25 0zM612.5 825 a12.5 12.5 0 1 0 25 0 a12.5 12.5 0 1 0 -25 0z" fill="rgba(95, 39, 205, 0.7)"></path><path d="M1325 1025L1375 975M1225 1325L1225 1275L1275 1225L1275 1175L1325 1125L1325 1075L1325 1025L1325 975" stroke="rgba(9, 218, 231, 0.63)" stroke-width="8.33"></path><path d="M1312.5 975 a12.5 12.5 0 1 0 25 0 a12.5 12.5 0 1 0 -25 0zM1362.5 975 a12.5 12.5 0 1 0 25 0 a12.5 12.5 0 1 0 -25 0z" fill="rgba(9, 218, 231, 0.63)"></path><path d="M625 925L625 875M625 975L575 925L525 875M575 775L525 725L525 675M675 1325L675 1275L675 1225L625 1175L625 1125L625 1075L625 1025L625 975L625 925L575 875L575 825L575 775L575 725" stroke="rgba(9, 218, 231, 0.63)" stroke-width="8.33"></path><path d="M562.5 725 a12.5 12.5 0 1 0 25 0 a12.5 12.5 0 1 0 -25 0zM612.5 875 a12.5 12.5 0 1 0 25 0 a12.5 12.5 0 1 0 -25 0zM512.5 875 a12.5 12.5 0 1 0 25 0 a12.5 12.5 0 1 0 -25 0zM512.5 675 a12.5 12.5 0 1 0 25 0 a12.5 12.5 0 1 0 -25 0z" fill="rgba(9, 218, 231, 0.63)"></path><path d="M1275 1325L1275 1275L1325 1225L1325 1175" stroke="rgba(95, 39, 205, 0.7)" stroke-width="8.33"></path><path d="M1312.5 1175 a12.5 12.5 0 1 0 25 0 a12.5 12.5 0 1 0 -25 0z" fill="rgba(95, 39, 205, 0.7)"></path><path d="M575 1225L575 1175L575 1125M525 1175L475 1125L475 1075L475 1025L475 975M575 1275L625 1225M625 1325L575 1275L575 1225L525 1175L525 1125L525 1075L525 1025" stroke="rgba(9, 218, 231, 0.63)" stroke-width="8.33"></path><path d="M512.5 1025 a12.5 12.5 0 1 0 25 0 a12.5 12.5 0 1 0 -25 0zM562.5 1125 a12.5 12.5 0 1 0 25 0 a12.5 12.5 0 1 0 -25 0zM462.5 975 a12.5 12.5 0 1 0 25 0 a12.5 12.5 0 1 0 -25 0zM612.5 1225 a12.5 12.5 0 1 0 25 0 a12.5 12.5 0 1 0 -25 0z" fill="rgba(9, 218, 231, 0.63)"></path><path d="M1375 925L1425 875L1425 825L1425 775L1425 725M1375 1075L1375 1025M1425 975L1425 925M1325 1325L1325 1275L1375 1225L1375 1175L1375 1125L1375 1075L1425 1025L1425 975L1375 925L1375 875L1375 825" stroke="rgba(95, 39, 205, 0.7)" stroke-width="8.33"></path><path d="M1362.5 825 a12.5 12.5 0 1 0 25 0 a12.5 12.5 0 1 0 -25 0zM1412.5 725 a12.5 12.5 0 1 0 25 0 a12.5 12.5 0 1 0 -25 0zM1362.5 1025 a12.5 12.5 0 1 0 25 0 a12.5 12.5 0 1 0 -25 0zM1412.5 925 a12.5 12.5 0 1 0 25 0 a12.5 12.5 0 1 0 -25 0z" fill="rgba(95, 39, 205, 0.7)"></path><path d="M1425 1125L1475 1075L1525 1025L1525 975M1525 725L1575 675M1425 1175L1475 1125L1525 1075M1375 1325L1375 1275L1425 1225L1425 1175L1425 1125L1425 1075L1475 1025L1475 975L1475 925L1475 875L1475 825L1525 775L1525 725L1525 675" stroke="rgba(95, 39, 205, 0.7)" stroke-width="8.33"></path><path d="M1512.5 675 a12.5 12.5 0 1 0 25 0 a12.5 12.5 0 1 0 -25 0zM1512.5 975 a12.5 12.5 0 1 0 25 0 a12.5 12.5 0 1 0 -25 0zM1562.5 675 a12.5 12.5 0 1 0 25 0 a12.5 12.5 0 1 0 -25 0zM1512.5 1075 a12.5 12.5 0 1 0 25 0 a12.5 12.5 0 1 0 -25 0z" fill="rgba(95, 39, 205, 0.7)"></path><path d="M525 1325L525 1275" stroke="rgba(95, 39, 205, 0.7)" stroke-width="8.33"></path><path d="M512.5 1275 a12.5 12.5 0 1 0 25 0 a12.5 12.5 0 1 0 -25 0z" fill="rgba(95, 39, 205, 0.7)"></path></g></g><defs><mask id="SvgjsMask1557"><rect width="1920" height="1280" fill="#ffffff"></rect></mask><mask id="SvgjsMask1558"><rect width="1920" height="1280" fill="white"></rect><path d="M1018.75 775 a6.25 6.25 0 1 0 12.5 0 a6.25 6.25 0 1 0 -12.5 0zM1018.75 1025 a6.25 6.25 0 1 0 12.5 0 a6.25 6.25 0 1 0 -12.5 0zM968.75 725 a6.25 6.25 0 1 0 12.5 0 a6.25 6.25 0 1 0 -12.5 0z" fill="black"></path><path d="M868.75 675 a6.25 6.25 0 1 0 12.5 0 a6.25 6.25 0 1 0 -12.5 0zM868.75 1075 a6.25 6.25 0 1 0 12.5 0 a6.25 6.25 0 1 0 -12.5 0zM818.75 1025 a6.25 6.25 0 1 0 12.5 0 a6.25 6.25 0 1 0 -12.5 0zM818.75 1125 a6.25 6.25 0 1 0 12.5 0 a6.25 6.25 0 1 0 -12.5 0z" fill="black"></path><path d="M1118.75 725 a6.25 6.25 0 1 0 12.5 0 a6.25 6.25 0 1 0 -12.5 0zM1068.75 1175 a6.25 6.25 0 1 0 12.5 0 a6.25 6.25 0 1 0 -12.5 0zM1168.75 775 a6.25 6.25 0 1 0 12.5 0 a6.25 6.25 0 1 0 -12.5 0zM1018.75 1125 a6.25 6.25 0 1 0 12.5 0 a6.25 6.25 0 1 0 -12.5 0z" fill="black"></path><path d="M1168.75 1025 a6.25 6.25 0 1 0 12.5 0 a6.25 6.25 0 1 0 -12.5 0z" fill="black"></path><path d="M768.75 1025 a6.25 6.25 0 1 0 12.5 0 a6.25 6.25 0 1 0 -12.5 0zM868.75 1225 a6.25 6.25 0 1 0 12.5 0 a6.25 6.25 0 1 0 -12.5 0zM818.75 1175 a6.25 6.25 0 1 0 12.5 0 a6.25 6.25 0 1 0 -12.5 0z" fill="black"></path><path d="M1218.75 775 a6.25 6.25 0 1 0 12.5 0 a6.25 6.25 0 1 0 -12.5 0zM1268.75 875 a6.25 6.25 0 1 0 12.5 0 a6.25 6.25 0 1 0 -12.5 0zM1268.75 675 a6.25 6.25 0 1 0 12.5 0 a6.25 6.25 0 1 0 -12.5 0zM1168.75 925 a6.25 6.25 0 1 0 12.5 0 a6.25 6.25 0 1 0 -12.5 0z" fill="black"></path><path d="M718.75 975 a6.25 6.25 0 1 0 12.5 0 a6.25 6.25 0 1 0 -12.5 0z" fill="black"></path><path d="M1318.75 725 a6.25 6.25 0 1 0 12.5 0 a6.25 6.25 0 1 0 -12.5 0zM1218.75 1075 a6.25 6.25 0 1 0 12.5 0 a6.25 6.25 0 1 0 -12.5 0z" fill="black"></path><path d="M668.75 675 a6.25 6.25 0 1 0 12.5 0 a6.25 6.25 0 1 0 -12.5 0zM618.75 675 a6.25 6.25 0 1 0 12.5 0 a6.25 6.25 0 1 0 -12.5 0zM718.75 725 a6.25 6.25 0 1 0 12.5 0 a6.25 6.25 0 1 0 -12.5 0zM618.75 825 a6.25 6.25 0 1 0 12.5 0 a6.25 6.25 0 1 0 -12.5 0z" fill="black"></path><path d="M1318.75 975 a6.25 6.25 0 1 0 12.5 0 a6.25 6.25 0 1 0 -12.5 0zM1368.75 975 a6.25 6.25 0 1 0 12.5 0 a6.25 6.25 0 1 0 -12.5 0z" fill="black"></path><path d="M568.75 725 a6.25 6.25 0 1 0 12.5 0 a6.25 6.25 0 1 0 -12.5 0zM618.75 875 a6.25 6.25 0 1 0 12.5 0 a6.25 6.25 0 1 0 -12.5 0zM518.75 875 a6.25 6.25 0 1 0 12.5 0 a6.25 6.25 0 1 0 -12.5 0zM518.75 675 a6.25 6.25 0 1 0 12.5 0 a6.25 6.25 0 1 0 -12.5 0z" fill="black"></path><path d="M1318.75 1175 a6.25 6.25 0 1 0 12.5 0 a6.25 6.25 0 1 0 -12.5 0z" fill="black"></path><path d="M518.75 1025 a6.25 6.25 0 1 0 12.5 0 a6.25 6.25 0 1 0 -12.5 0zM568.75 1125 a6.25 6.25 0 1 0 12.5 0 a6.25 6.25 0 1 0 -12.5 0zM468.75 975 a6.25 6.25 0 1 0 12.5 0 a6.25 6.25 0 1 0 -12.5 0zM618.75 1225 a6.25 6.25 0 1 0 12.5 0 a6.25 6.25 0 1 0 -12.5 0z" fill="black"></path><path d="M1368.75 825 a6.25 6.25 0 1 0 12.5 0 a6.25 6.25 0 1 0 -12.5 0zM1418.75 725 a6.25 6.25 0 1 0 12.5 0 a6.25 6.25 0 1 0 -12.5 0zM1368.75 1025 a6.25 6.25 0 1 0 12.5 0 a6.25 6.25 0 1 0 -12.5 0zM1418.75 925 a6.25 6.25 0 1 0 12.5 0 a6.25 6.25 0 1 0 -12.5 0z" fill="black"></path><path d="M1518.75 675 a6.25 6.25 0 1 0 12.5 0 a6.25 6.25 0 1 0 -12.5 0zM1518.75 975 a6.25 6.25 0 1 0 12.5 0 a6.25 6.25 0 1 0 -12.5 0zM1568.75 675 a6.25 6.25 0 1 0 12.5 0 a6.25 6.25 0 1 0 -12.5 0zM1518.75 1075 a6.25 6.25 0 1 0 12.5 0 a6.25 6.25 0 1 0 -12.5 0z" fill="black"></path><path d="M518.75 1275 a6.25 6.25 0 1 0 12.5 0 a6.25 6.25 0 1 0 -12.5 0z" fill="black"></path></mask></defs></svg>